<?xml version="1.0" encoding="utf-8"?>
<!-- Generator: Adobe Illustrator 19.0.0, SVG Export Plug-In . SVG Version: 6.00 Build 0)  -->
<svg version="1.1" id="layer" xmlns="http://www.w3.org/2000/svg" xmlns:xlink="http://www.w3.org/1999/xlink" x="0px" y="0px"
	 viewBox="-153 -46 652 652" style="enable-background:new -153 -46 652 652;" xml:space="preserve">
<style type="text/css">
	.st0{fill:#4AA435;}
	.st1{fill:#005DA0;}
	.st2{fill:#FFFFFF;}
</style>
<g>
	<path class="st0" d="M161.8,212.5C83.4,255.7,5,182.4-131.9,222.1v0v113.5C5,295.9,83.4,369.2,161.8,326.1V212.5"/>
</g>
<rect x="161.8" y="212.5" class="st1" width="306.3" height="113.2"/>
<path class="st2" d="M-97,295.4h-11.5v-44h11v5.4c1.1-2,2.8-3.6,5.2-4.8c2.4-1.2,4.8-1.8,7.3-1.8c6.2,0,10.4,2.4,12.6,7.3
	c3.1-4.9,7.6-7.3,13.5-7.3c4.3,0,8,1.4,11,4.2c3,2.8,4.5,7,4.5,12.5v28.5h-11.2v-26.1c0-2.5-0.6-4.5-1.9-6c-1.2-1.5-3.1-2.3-5.7-2.3
	c-2.4,0-4.3,0.8-5.7,2.5s-2.2,3.7-2.2,6.2v25.7h-11.4v-26.1c0-2.5-0.6-4.5-1.9-6c-1.3-1.5-3.2-2.3-5.6-2.3c-2.4,0-4.4,0.8-5.8,2.5
	c-1.5,1.6-2.2,3.7-2.2,6.2"/>
<path class="st2" d="M-28.7,256.7c4.2-4.4,9.6-6.6,16-6.6s11.7,2.2,16,6.6c4.2,4.4,6.4,10,6.4,16.7c0,6.7-2.1,12.3-6.4,16.7
	c-4.3,4.4-9.6,6.6-16,6.6s-11.7-2.2-16-6.6c-4.2-4.4-6.4-10-6.4-16.7C-35,266.7-32.9,261.1-28.7,256.7 M-20.3,282.6
	c2.1,2.2,4.7,3.3,7.7,3.3c3,0,5.6-1.1,7.7-3.3c2.1-2.2,3.2-5.3,3.2-9.2c0-3.9-1.1-7-3.2-9.2c-2.1-2.2-4.7-3.3-7.7-3.3
	c-3,0-5.6,1.1-7.7,3.3c-2.1,2.2-3.2,5.3-3.2,9.2C-23.5,277.4-22.5,280.4-20.3,282.6"/>
<path class="st2" d="M30.3,270.1v25.3H18.8v-44h11.2v5.4c1.2-2.1,2.9-3.8,5.2-4.9c2.2-1.1,4.6-1.7,7.1-1.7c5,0,8.9,1.6,11.5,4.9
	c2.6,3.2,3.9,7.4,3.9,12.6v27.7H46.1v-25.7c0-2.6-0.7-4.7-1.9-6.3c-1.3-1.6-3.3-2.4-5.9-2.4c-2.4,0-4.4,0.9-5.8,2.6
	C31,265.3,30.3,267.5,30.3,270.1"/>
<path class="st2" d="M97.9,279.9l9.6,2.9c-1.2,4.1-3.4,7.4-6.8,10c-3.4,2.6-7.6,3.9-12.6,3.9c-6.1,0-11.3-2.1-15.6-6.4
	c-4.3-4.3-6.4-10-6.4-17.1c0-6.8,2.1-12.4,6.2-16.7c4.2-4.3,9.1-6.5,14.7-6.5c6.6,0,11.7,2,15.5,6.1c3.7,4.1,5.6,9.6,5.6,16.7l0,1.6
	l0,1.4l-0.1,0.6H77.5c0.1,2.9,1.2,5.3,3.3,7.2c2.1,1.9,4.6,2.9,7.5,2.9C93.1,286.6,96.4,284.3,97.9,279.9 M77.7,268.4h19.1
	c-0.1-2.4-1-4.5-2.5-6.2c-1.6-1.7-3.9-2.5-7-2.5c-2.8,0-5,0.9-6.8,2.7C78.8,264.2,77.9,266.2,77.7,268.4"/>
<polyline class="st2" points="131.4,312.8 119.1,312.8 129.2,289.9 111.1,251.4 124,251.4 135.3,277.2 145.8,251.4 158.1,251.4 "/>
<path class="st2" d="M187.9,261.2c-3.1,0-5.6,1.1-7.7,3.3c-2.1,2.2-3.1,5.2-3.1,9c0,3.8,1.1,6.8,3.2,9.1c2.1,2.2,4.7,3.4,7.8,3.4
	c2.7,0,4.9-0.7,6.5-2.2c1.6-1.5,2.7-3.2,3.3-5.2l10.1,3.5c-1,4.1-3.3,7.5-6.8,10.5c-3.5,2.9-7.9,4.4-13.2,4.4
	c-6.4,0-11.7-2.2-16-6.7c-4.3-4.4-6.4-10-6.4-16.7c0-6.7,2.1-12.3,6.4-16.7c4.2-4.4,9.5-6.6,15.7-6.6c5.4,0,9.9,1.5,13.3,4.3
	c3.5,2.9,5.7,6.4,6.7,10.5l-10.3,3.6C196,263.7,192.8,261.2,187.9,261.2"/>
<path class="st2" d="M219.1,256.8c4.2-4.4,9.6-6.6,16-6.6c6.4,0,11.7,2.2,16,6.6c4.3,4.4,6.4,10,6.4,16.7c0,6.7-2.1,12.3-6.4,16.7
	c-4.2,4.4-9.6,6.6-16,6.6c-6.4,0-11.7-2.2-16-6.6c-4.2-4.4-6.4-10-6.4-16.7C212.8,266.8,214.9,261.2,219.1,256.8 M227.4,282.8
	c2.1,2.2,4.7,3.3,7.7,3.3c3,0,5.6-1.1,7.7-3.3c2.1-2.2,3.2-5.3,3.2-9.2c0-3.9-1.1-7-3.2-9.2c-2.1-2.2-4.7-3.3-7.7-3.3
	c-3,0-5.6,1.1-7.7,3.3c-2.1,2.2-3.2,5.3-3.2,9.2C224.3,277.5,225.3,280.6,227.4,282.8"/>
<path class="st2" d="M278.1,270.2v25.3h-11.5v-44h11.2v5.4c1.2-2.1,2.9-3.8,5.2-4.9c2.2-1.1,4.6-1.7,7.1-1.7c5,0,8.9,1.6,11.5,4.9
	c2.6,3.3,3.9,7.4,3.9,12.6v27.7h-11.5v-25.7c0-2.6-0.7-4.7-1.9-6.3c-1.3-1.6-3.3-2.4-5.9-2.4c-2.4,0-4.4,0.9-5.8,2.6
	C278.8,265.4,278.1,267.6,278.1,270.2"/>
<path class="st2" d="M331.3,238.4v13.1h8.6v10.5h-8.6v18.4c0,1.8,0.4,3.2,1.2,3.9c0.8,0.8,2.1,1.2,3.8,1.2c1.6,0,2.7-0.1,3.5-0.4
	v9.8c-1.7,0.7-3.8,1.1-6.5,1.1c-4.2,0-7.4-1.2-9.9-3.6c-2.4-2.4-3.6-5.7-3.6-10v-20.5h-7.7v-10.5h2.2c2.1,0,3.8-0.6,4.9-1.9
	c1.1-1.3,1.7-3,1.7-5.1v-6.2"/>
<path class="st2" d="M375.1,251.4v12c-1.2-0.2-2.3-0.4-3.5-0.4c-3.3,0-5.9,1-8,2.9c-2,1.9-3,5.1-3,9.5v20.1h-11.5v-44h11.2v6.5
	c2.1-4.6,6.1-6.9,12.1-6.9C373,251.2,373.9,251.3,375.1,251.4"/>
<path class="st2" d="M385.9,256.8c4.2-4.4,9.6-6.6,16-6.6c6.4,0,11.7,2.2,16,6.6c4.2,4.4,6.4,10,6.4,16.7c0,6.7-2.1,12.3-6.4,16.7
	c-4.2,4.4-9.6,6.6-16,6.6c-6.4,0-11.7-2.2-16-6.6c-4.2-4.4-6.4-10-6.4-16.7C379.6,266.8,381.7,261.2,385.9,256.8 M394.3,282.8
	c2.1,2.2,4.7,3.3,7.7,3.3c3,0,5.5-1.1,7.7-3.3c2.1-2.2,3.2-5.3,3.2-9.2c0-3.9-1.1-7-3.2-9.2c-2.1-2.2-4.7-3.3-7.7-3.3
	c-3,0-5.6,1.1-7.7,3.3c-2.1,2.2-3.2,5.3-3.2,9.2C391.1,277.5,392.1,280.6,394.3,282.8"/>
<rect x="433.4" y="230.8" class="st2" width="11.5" height="64.7"/>
</svg>
